<?xml version="1.0" encoding="UTF-8" standalone="no"?>
<!DOCTYPE svg PUBLIC "-//W3C//DTD SVG 1.1//EN" "http://www.w3.org/Graphics/SVG/1.1/DTD/svg11.dtd">
<svg xmlns="http://www.w3.org/2000/svg" version="1.1" viewBox="0.00 0.00 512.00 512.00">
<g stroke-width="2.00" fill="none" stroke-linecap="butt">
<path stroke="#a18635" vector-effect="non-scaling-stroke" d="
  M 316.60 80.46
  L 312.68 104.97"
/>
<path stroke="#367c9c" vector-effect="non-scaling-stroke" d="
  M 312.68 104.97
  Q 311.09 114.45 309.61 123.91
  Q 307.69 136.19 305.69 140.66
  C 293.87 167.04 257.91 171.39 240.65 147.82
  Q 230.66 134.18 234.34 115.94
  Q 234.41 115.61 234.37 115.56
  Q 234.29 115.43 234.01 115.25"
/>
<path stroke="#a18635" vector-effect="non-scaling-stroke" d="
  M 234.01 115.25
  Q 234.02 115.47 234.26 115.33
  A 0.51 0.51 0.0 0 0 234.49 114.99
  L 241.91 69.09"
/>
<path stroke="#a18635" vector-effect="non-scaling-stroke" d="
  M 257.69 71.49
  L 251.08 113.03"
/>
<path stroke="#367c9c" vector-effect="non-scaling-stroke" d="
  M 251.08 113.03
  C 249.97 118.73 248.52 125.59 249.95 130.94
  Q 252.70 141.20 262.34 145.57
  C 269.03 148.60 277.96 147.83 283.59 143.41
  Q 290.93 137.65 292.16 130.71
  Q 294.16 119.48 295.91 108.51
  Q 295.99 107.98 295.74 107.20"
/>
<path stroke="#a18635" vector-effect="non-scaling-stroke" d="
  M 295.74 107.20
  L 300.70 78.04"
/>
<path stroke="#a18635" vector-effect="non-scaling-stroke" d="
  M 277.21 74.52
  L 261.68 72.15"
/>
<path stroke="#94c08f" vector-effect="non-scaling-stroke" d="
  M 234.01 115.25
  Q 180.38 122.22 126.72 129.24
  Q 117.57 130.44 114.42 132.16
  C 107.50 135.97 102.81 142.59 102.06 150.50
  Q 101.82 153.06 102.01 154.50
  Q 119.55 289.13 137.14 423.75
  Q 137.19 424.12 137.01 424.53"
/>
<path stroke="#94c08f" vector-effect="non-scaling-stroke" d="
  M 295.74 107.20
  L 251.08 113.03"
/>
<path stroke="#94c08f" vector-effect="non-scaling-stroke" d="
  M 399.54 93.62
  L 312.68 104.97"
/>
<path stroke="#a18635" vector-effect="non-scaling-stroke" d="
  M 296.78 77.52
  L 281.15 75.14"
/>
<path stroke="#85cbeb" vector-effect="non-scaling-stroke" d="
  M 368.0596 166.0577
  A 7.92 7.92 0.0 0 0 359.1855 159.2237
  L 189.1337 181.3096
  A 7.92 7.92 0.0 0 0 182.2998 190.1837
  L 182.3204 190.3423
  A 7.92 7.92 0.0 0 0 191.1945 197.1763
  L 361.2463 175.0904
  A 7.92 7.92 0.0 0 0 368.0802 166.2163
  L 368.0596 166.0577"
/>
<path stroke="#85cbeb" vector-effect="non-scaling-stroke" d="
  M 411.8707 213.1405
  A 7.94 7.94 0.0 0 0 402.9742 206.2893
  L 158.7851 238.0039
  A 7.94 7.94 0.0 0 0 151.9338 246.9005
  L 151.9493 247.0195
  A 7.94 7.94 0.0 0 0 160.8458 253.8707
  L 405.0349 222.1561
  A 7.94 7.94 0.0 0 0 411.8862 213.2595
  L 411.8707 213.1405"
/>
<path stroke="#85cbeb" vector-effect="non-scaling-stroke" d="
  M 418.6294 265.0006
  A 7.93 7.93 0.0 0 0 409.7441 258.1580
  L 165.5352 289.8752
  A 7.93 7.93 0.0 0 0 158.6926 298.7605
  L 158.7106 298.8994
  A 7.93 7.93 0.0 0 0 167.5959 305.7420
  L 411.8048 274.0248
  A 7.93 7.93 0.0 0 0 418.6474 265.1395
  L 418.6294 265.0006"
/>
<path stroke="#85cbeb" vector-effect="non-scaling-stroke" d="
  M 425.4007 316.8805
  A 7.94 7.94 0.0 0 0 416.5042 310.0293
  L 172.3151 341.7439
  A 7.94 7.94 0.0 0 0 165.4638 350.6405
  L 165.4793 350.7595
  A 7.94 7.94 0.0 0 0 174.3758 357.6107
  L 418.5649 325.8961
  A 7.94 7.94 0.0 0 0 425.4162 316.9995
  L 425.4007 316.8805"
/>
<path stroke="#85cbeb" vector-effect="non-scaling-stroke" d="
  M 261.6638 390.8227
  A 7.84 7.84 0.0 0 0 252.8793 384.0577
  L 178.9800 393.6556
  A 7.84 7.84 0.0 0 0 172.2150 402.4400
  L 172.2562 402.7573
  A 7.84 7.84 0.0 0 0 181.0407 409.5223
  L 254.9400 399.9244
  A 7.84 7.84 0.0 0 0 261.7050 391.1400
  L 261.6638 390.8227"
/>
</g>
<path fill="#424242" d="
  M 316.60 80.46
  L 312.68 104.97
  Q 311.09 114.45 309.61 123.91
  Q 307.69 136.19 305.69 140.66
  C 293.87 167.04 257.91 171.39 240.65 147.82
  Q 230.66 134.18 234.34 115.94
  Q 234.41 115.61 234.37 115.56
  Q 234.29 115.43 234.01 115.25
  Q 234.02 115.47 234.26 115.33
  A 0.51 0.51 0.0 0 0 234.49 114.99
  L 241.91 69.09
  Q 243.53 59.36 245.01 49.60
  Q 245.75 44.77 246.94 43.00
  C 249.78 38.77 255.80 38.37 259.32 42.17
  C 261.52 44.53 261.59 47.16 261.09 50.23
  Q 259.34 60.87 257.69 71.49
  L 251.08 113.03
  C 249.97 118.73 248.52 125.59 249.95 130.94
  Q 252.70 141.20 262.34 145.57
  C 269.03 148.60 277.96 147.83 283.59 143.41
  Q 290.93 137.65 292.16 130.71
  Q 294.16 119.48 295.91 108.51
  Q 295.99 107.98 295.74 107.20
  L 300.70 78.04
  Q 302.85 64.88 305.13 51.78
  Q 306.22 45.59 302.18 40.83
  C 295.61 33.08 283.15 37.52 281.72 47.00
  Q 279.62 60.82 277.21 74.52
  L 261.68 72.15
  Q 264.79 51.09 266.09 43.82
  C 270.05 21.68 297.63 13.01 313.40 29.43
  Q 319.93 36.24 321.06 45.43
  Q 321.59 49.71 319.65 61.24
  Q 318.04 70.85 316.60 80.46
  Z"
/>
<path fill="#424242" d="
  M 296.78 77.52
  L 281.15 75.14
  Q 282.86 63.98 284.69 53.25
  Q 285.36 49.35 287.55 47.66
  C 292.14 44.12 299.15 46.04 300.39 51.83
  Q 300.75 53.55 300.10 57.65
  Q 298.52 67.60 296.78 77.52
  Z"
/>
<path fill="#ffca28" d="
  M 241.91 69.09
  L 234.49 114.99
  A 0.51 0.51 0.0 0 1 234.26 115.33
  Q 234.02 115.47 234.01 115.25
  Q 180.38 122.22 126.72 129.24
  Q 117.57 130.44 114.42 132.16
  C 107.50 135.97 102.81 142.59 102.06 150.50
  Q 101.82 153.06 102.01 154.50
  Q 119.55 289.13 137.14 423.75
  Q 137.19 424.12 137.01 424.53
  Q 96.65 418.37 56.31 412.18
  Q 48.06 410.91 44.94 409.38
  C 35.96 404.99 30.78 395.12 32.29 385.26
  Q 56.41 227.27 80.62 68.49
  C 82.18 58.25 89.66 50.01 100.08 48.53
  Q 103.62 48.03 109.79 48.97
  Q 175.67 58.97 241.91 69.09
  Z"
/>
<path fill="#ffca28" d="
  M 257.69 71.49
  L 261.68 72.15
  L 277.21 74.52
  L 281.15 75.14
  L 296.78 77.52
  L 300.70 78.04
  L 295.74 107.20
  L 251.08 113.03
  L 257.69 71.49
  Z"
/>
<path fill="#ffca28" d="
  M 316.60 80.46
  Q 355.62 86.40 394.26 92.26
  Q 396.86 92.66 399.54 93.62
  L 312.68 104.97
  L 316.60 80.46
  Z"
/>
<path fill="#29b6f6" d="
  M 137.01 424.53
  Q 137.19 424.12 137.14 423.75
  Q 119.55 289.13 102.01 154.50
  Q 101.82 153.06 102.06 150.50
  C 102.81 142.59 107.50 135.97 114.42 132.16
  Q 117.57 130.44 126.72 129.24
  Q 180.38 122.22 234.01 115.25
  Q 234.29 115.43 234.37 115.56
  Q 234.41 115.61 234.34 115.94
  Q 230.66 134.18 240.65 147.82
  C 257.91 171.39 293.87 167.04 305.69 140.66
  Q 307.69 136.19 309.61 123.91
  Q 311.09 114.45 312.68 104.97
  L 399.54 93.62
  Q 403.75 93.13 408.02 92.56
  Q 413.21 91.88 416.50 92.19
  C 426.87 93.18 435.36 101.74 436.68 111.88
  Q 456.29 262.84 477.67 426.51
  Q 478.57 433.40 478.05 436.97
  C 476.91 444.80 471.36 451.82 463.99 454.81
  Q 461.11 455.98 453.84 456.92
  Q 308.69 475.82 169.00 493.95
  C 159.52 495.18 150.64 489.91 146.06 481.65
  Q 144.18 478.24 143.11 469.94
  Q 140.28 448.13 137.44 425.74
  Q 137.34 424.95 137.01 424.53
  Z
  M 368.0596 166.0577
  A 7.92 7.92 0.0 0 0 359.1855 159.2237
  L 189.1337 181.3096
  A 7.92 7.92 0.0 0 0 182.2998 190.1837
  L 182.3204 190.3423
  A 7.92 7.92 0.0 0 0 191.1945 197.1763
  L 361.2463 175.0904
  A 7.92 7.92 0.0 0 0 368.0802 166.2163
  L 368.0596 166.0577
  Z
  M 411.8707 213.1405
  A 7.94 7.94 0.0 0 0 402.9742 206.2893
  L 158.7851 238.0039
  A 7.94 7.94 0.0 0 0 151.9338 246.9005
  L 151.9493 247.0195
  A 7.94 7.94 0.0 0 0 160.8458 253.8707
  L 405.0349 222.1561
  A 7.94 7.94 0.0 0 0 411.8862 213.2595
  L 411.8707 213.1405
  Z
  M 418.6294 265.0006
  A 7.93 7.93 0.0 0 0 409.7441 258.1580
  L 165.5352 289.8752
  A 7.93 7.93 0.0 0 0 158.6926 298.7605
  L 158.7106 298.8994
  A 7.93 7.93 0.0 0 0 167.5959 305.7420
  L 411.8048 274.0248
  A 7.93 7.93 0.0 0 0 418.6474 265.1395
  L 418.6294 265.0006
  Z
  M 425.4007 316.8805
  A 7.94 7.94 0.0 0 0 416.5042 310.0293
  L 172.3151 341.7439
  A 7.94 7.94 0.0 0 0 165.4638 350.6405
  L 165.4793 350.7595
  A 7.94 7.94 0.0 0 0 174.3758 357.6107
  L 418.5649 325.8961
  A 7.94 7.94 0.0 0 0 425.4162 316.9995
  L 425.4007 316.8805
  Z
  M 261.6638 390.8227
  A 7.84 7.84 0.0 0 0 252.8793 384.0577
  L 178.9800 393.6556
  A 7.84 7.84 0.0 0 0 172.2150 402.4400
  L 172.2562 402.7573
  A 7.84 7.84 0.0 0 0 181.0407 409.5223
  L 254.9400 399.9244
  A 7.84 7.84 0.0 0 0 261.7050 391.1400
  L 261.6638 390.8227
  Z"
/>
<path fill="#29b6f6" d="
  M 295.74 107.20
  Q 295.99 107.98 295.91 108.51
  Q 294.16 119.48 292.16 130.71
  Q 290.93 137.65 283.59 143.41
  C 277.96 147.83 269.03 148.60 262.34 145.57
  Q 252.70 141.20 249.95 130.94
  C 248.52 125.59 249.97 118.73 251.08 113.03
  L 295.74 107.20
  Z"
/>
<rect fill="#e0e0e0" x="-93.66" y="-8.00" transform="translate(275.19,178.20) rotate(-7.4)" width="187.32" height="16.00" rx="7.92"/>
<rect fill="#e0e0e0" x="-131.06" y="-8.00" transform="translate(281.91,230.08) rotate(-7.4)" width="262.12" height="16.00" rx="7.94"/>
<rect fill="#e0e0e0" x="-131.06" y="-8.00" transform="translate(288.67,281.95) rotate(-7.4)" width="262.12" height="16.00" rx="7.93"/>
<rect fill="#e0e0e0" x="-131.06" y="-8.00" transform="translate(295.44,333.82) rotate(-7.4)" width="262.12" height="16.00" rx="7.94"/>
<rect fill="#e0e0e0" x="-45.10" y="-8.00" transform="translate(216.96,396.79) rotate(-7.4)" width="90.20" height="16.00" rx="7.84"/>
</svg>
