<?xml version="1.0" encoding="UTF-8" standalone="no"?>
<!DOCTYPE svg PUBLIC "-//W3C//DTD SVG 1.1//EN" "http://www.w3.org/Graphics/SVG/1.1/DTD/svg11.dtd">
<svg xmlns="http://www.w3.org/2000/svg" version="1.1" viewBox="0.00 0.00 100.00 100.00">
<g stroke-width="2.00" fill="none" stroke-linecap="butt">
<path stroke="#98b3e5" vector-effect="non-scaling-stroke" d="
  M 68.71 58.80
  Q 68.43 59.04 68.05 58.51"
/>
<path stroke="#8090d2" vector-effect="non-scaling-stroke" d="
  M 40.81 67.94
  Q 40.94 68.61 40.82 68.93"
/>
<path stroke="#584b8c" vector-effect="non-scaling-stroke" d="
  M 36.31 30.17
  Q 33.99 30.51 33.17 32.42
  Q 32.95 32.94 33.47 32.73
  Q 35.29 31.98 36.31 30.17"
/>
<path stroke="#584b8c" vector-effect="non-scaling-stroke" d="
  M 32.09 41.26
  Q 31.87 40.71 31.44 40.81"
/>
</g>
<path fill="#080808" d="
  M 42.85 3.89
  A 0.50 0.50 0.0 0 1 43.30 3.34
  L 45.23 3.16
  A 4.32 3.77 -5.5 0 1 49.89 6.50
  L 49.92 6.82
  A 4.32 3.77 -5.5 0 1 45.98 10.98
  L 44.05 11.17
  A 0.50 0.50 0.0 0 1 43.50 10.72
  L 42.85 3.89
  Z
  M 44.30 4.83
  L 44.52 9.39
  A 0.88 0.88 0.0 0 0 45.45 10.22
  L 45.68 10.21
  A 3.35 3.09 -2.8 0 0 48.87 6.96
  L 48.86 6.82
  A 3.35 3.09 -2.8 0 0 45.37 3.90
  L 45.14 3.91
  A 0.88 0.88 0.0 0 0 44.30 4.83
  Z"
/>
<path fill="#080808" d="
  M 63.57 8.62
  Q 62.82 8.70 62.46 9.37
  Q 61.06 11.91 60.41 9.08
  Q 60.22 8.27 59.93 7.46
  A 0.51 0.51 0.0 0 0 59.04 7.33
  Q 58.00 8.70 58.24 10.33
  Q 58.35 11.08 57.61 11.21
  Q 57.24 11.28 56.91 11.12
  Q 56.34 10.86 56.63 10.30
  C 57.44 8.74 58.87 5.97 58.18 4.24
  Q 57.89 3.52 58.66 3.52
  L 59.02 3.52
  Q 59.83 3.51 59.98 4.31
  L 60.46 7.02
  A 1.69 1.68 58.2 0 0 63.47 7.73
  L 64.35 6.55
  Q 64.37 6.53 64.39 6.51
  Q 65.95 5.01 66.83 5.65
  A 0.52 0.51 -51.4 0 1 66.91 6.41
  L 65.64 7.80
  Q 65.24 8.25 65.29 8.84
  Q 65.45 10.69 64.91 12.55
  Q 64.78 13.01 64.30 13.08
  Q 64.02 13.12 63.77 13.01
  A 0.67 0.67 0.0 0 1 63.59 11.91
  Q 64.70 10.87 64.67 9.57
  Q 64.64 8.50 63.57 8.62
  Z"
/>
<path fill="#291b35" fill-opacity="0.996" d="
  M 36.60 9.88
  Q 36.23 9.96 35.94 10.15
  A 0.83 0.82 63.5 0 0 35.61 11.15
  L 36.17 12.60
  A 0.66 0.66 0.0 0 1 35.59 13.49
  Q 34.87 13.54 34.74 12.78
  Q 34.18 9.68 32.83 6.76
  A 0.65 0.64 71.9 0 1 33.28 5.86
  L 36.15 5.25
  A 1.59 1.58 85.9 0 1 38.06 6.91
  L 37.92 8.98
  A 1.06 1.05 20.6 0 0 38.33 9.87
  L 39.96 11.11
  Q 40.28 11.36 40.26 11.77
  Q 40.25 11.99 40.03 12.07
  Q 39.88 12.12 39.74 12.07
  Q 38.34 11.51 37.53 10.27
  Q 37.19 9.76 36.60 9.88
  Z
  M 37.13 7.59
  A 1.45 1.45 0.0 0 0 35.68 6.14
  A 1.45 1.45 0.0 0 0 34.23 7.59
  A 1.45 1.45 0.0 0 0 35.68 9.04
  A 1.45 1.45 0.0 0 0 37.13 7.59
  Z"
/>
<path fill="#291b35" fill-opacity="0.996" d="
  M 31.14 13.16
  A 3.88 3.88 0.0 0 1 27.26 17.04
  A 3.88 3.88 0.0 0 1 23.38 13.16
  A 3.88 3.88 0.0 0 1 27.26 9.28
  A 3.88 3.88 0.0 0 1 31.14 13.16
  Z
  M 28.7696 15.7887
  A 3.05 2.71 59.9 0 0 29.5846 11.7909
  A 3.05 2.71 59.9 0 0 25.7104 10.5113
  A 3.05 2.71 59.9 0 0 24.8954 14.5091
  A 3.05 2.71 59.9 0 0 28.7696 15.7887
  Z"
/>
<path fill="#080808" d="
  M 73.79 11.82
  Q 73.40 11.55 72.93 11.53
  Q 72.60 11.52 72.41 11.80
  Q 71.12 13.82 68.50 14.90
  Q 68.15 15.04 68.04 14.69
  L 67.90 14.28
  Q 67.81 14.01 68.04 13.85
  L 73.83 9.71
  A 0.74 0.73 72.7 0 1 74.99 10.32
  Q 74.97 11.31 74.47 12.20
  A 0.26 0.26 0.0 0 1 74.00 12.17
  Q 73.94 12.03 73.86 11.90
  Q 73.83 11.86 73.79 11.82
  Z"
/>
<path fill="#080808" d="
  M 73.99 17.84
  A 0.15 0.15 0.0 0 1 73.82 17.98
  L 73.76 17.97
  A 2.51 1.15 -84.6 0 1 72.85 15.37
  L 72.89 14.97
  A 2.51 1.15 -84.6 0 1 74.27 12.58
  L 74.33 12.58
  A 0.15 0.15 0.0 0 1 74.47 12.75
  L 73.99 17.84
  Z"
/>
<path fill="#080808" d="
  M 80.01 17.78
  Q 78.41 18.87 77.57 20.47
  Q 77.17 21.24 76.60 20.59
  Q 76.36 20.31 76.37 19.94
  Q 76.40 19.35 76.90 19.06
  Q 79.47 17.55 80.68 15.60
  Q 82.26 13.03 82.23 16.05
  Q 82.21 17.80 81.93 19.64
  Q 81.62 21.76 83.37 20.54
  Q 84.27 19.91 84.51 18.72
  Q 84.64 18.07 85.30 18.07
  Q 85.89 18.06 86.21 18.65
  A 0.77 0.77 0.0 0 1 86.05 19.60
  L 81.29 23.86
  A 0.64 0.64 0.0 0 1 80.23 23.43
  Q 80.13 22.19 81.10 21.31
  Q 81.55 20.89 81.39 20.30
  L 80.79 18.07
  Q 80.60 17.38 80.01 17.78
  Z"
/>
<path fill="#3c255f" d="
  M 19.21 18.80
  Q 18.72 17.49 17.50 16.70
  A 0.94 0.93 28.7 0 1 17.15 15.53
  Q 17.33 15.13 17.72 15.03
  A 0.74 0.74 0.0 0 1 18.54 15.40
  L 21.88 21.59
  Q 22.08 21.96 21.71 22.17
  Q 21.29 22.40 20.80 22.15
  Q 19.88 21.67 19.06 21.02
  Q 18.60 20.66 18.03 20.75
  Q 16.89 20.92 16.83 22.12
  Q 16.80 22.81 17.33 23.25
  Q 18.33 24.08 18.61 25.46
  A 0.45 0.45 0.0 0 1 17.99 25.96
  L 11.37 23.12
  A 0.54 0.54 0.0 0 1 11.24 22.21
  L 11.49 22.00
  Q 12.00 21.58 12.49 22.00
  Q 13.49 22.85 14.74 23.43
  Q 15.75 23.91 16.37 22.82
  A 1.03 1.03 0.0 0 0 16.00 21.42
  Q 14.76 20.68 14.64 19.55
  Q 14.52 18.47 15.55 18.82
  Q 16.54 19.15 17.30 19.98
  A 1.14 1.14 0.0 0 0 19.21 18.80
  Z"
/>
<circle fill="#3c255f" cx="49.21" cy="21.08" r="4.00"/>
<path fill="#a3b7de" d="
  M 68.71 58.80
  Q 68.43 59.04 68.05 58.51
  Q 69.08 56.67 69.93 54.69
  Q 72.45 48.80 69.30 43.75
  C 67.88 41.46 65.08 39.20 63.69 37.28
  Q 59.18 31.05 61.55 23.10
  A 1.01 1.01 0.0 0 1 62.76 22.41
  Q 70.17 24.24 73.81 30.15
  C 75.98 33.69 76.16 38.54 76.37 42.68
  A 0.30 0.30 0.0 0 1 75.92 42.95
  Q 75.48 42.68 75.32 42.19
  Q 73.95 37.89 71.41 35.39
  Q 69.66 33.67 70.53 35.97
  C 71.43 38.34 72.68 40.69 73.10 43.20
  Q 74.58 51.89 68.71 58.80
  Z"
/>
<path fill="#3c255f" d="
  M 36.31 30.17
  Q 33.99 30.51 33.17 32.42
  Q 32.95 32.94 33.47 32.73
  Q 35.29 31.98 36.31 30.17
  Q 36.41 30.58 36.74 30.60
  Q 36.94 30.61 37.22 30.39
  Q 38.74 29.19 40.65 28.51
  Q 50.92 24.81 59.96 32.29
  A 0.47 0.47 0.0 0 1 59.96 33.01
  L 59.77 33.19
  Q 59.37 33.53 58.94 33.23
  C 54.61 30.33 49.72 28.98 45.02 31.53
  C 41.66 33.36 39.72 36.70 36.34 38.44
  C 34.92 39.17 32.80 39.72 32.09 41.26
  Q 31.87 40.71 31.44 40.81
  Q 31.04 40.14 30.25 40.22
  Q 26.96 40.57 23.42 39.54
  A 1.05 1.04 -73.0 0 1 22.72 38.21
  Q 27.41 23.55 42.74 24.52
  Q 43.22 24.55 43.51 24.94
  A 0.41 0.40 -30.5 0 1 43.35 25.54
  Q 40.48 26.94 37.58 28.60
  Q 36.39 29.28 36.31 30.17
  Z"
/>
<path fill="#080808" d="
  M 89.18 27.72
  A 0.99 0.99 0.0 0 0 88.04 26.39
  Q 87.30 26.56 87.01 27.22
  Q 86.81 27.67 86.31 27.68
  L 83.54 27.74
  A 0.75 0.75 0.0 0 1 83.09 27.59
  Q 82.82 27.39 82.78 27.11
  Q 82.71 26.73 83.09 26.64
  Q 86.62 25.76 89.45 25.53
  Q 92.57 25.26 90.51 27.62
  Q 88.52 29.90 86.96 32.55
  A 0.58 0.58 0.0 0 1 86.16 32.75
  L 85.80 32.54
  A 0.41 0.40 36.0 0 1 85.70 31.93
  Q 86.71 30.78 87.08 29.44
  Q 87.26 28.82 87.88 28.65
  Q 88.92 28.37 89.18 27.72
  Z"
/>
<path fill="#291b35" fill-opacity="0.996" d="
  M 8.85 30.97
  Q 10.24 30.92 10.95 29.71
  A 1.44 1.44 0.0 0 1 12.26 29.00
  C 15.80 29.18 14.89 32.82 12.91 34.41
  A 0.68 0.67 -39.3 0 1 11.98 34.32
  L 11.80 34.10
  Q 11.50 33.75 11.88 33.50
  Q 12.99 32.76 13.63 31.74
  A 0.89 0.88 -48.6 0 0 13.57 30.71
  Q 13.10 30.13 12.37 30.20
  C 11.32 30.30 10.92 31.23 10.34 31.95
  Q 9.98 32.41 9.42 32.26
  Q 7.98 31.89 7.12 30.52
  A 0.91 0.91 0.0 0 1 7.10 29.57
  L 8.33 27.44
  A 0.57 0.57 0.0 0 1 8.90 27.16
  L 9.42 27.24
  Q 9.84 27.30 9.64 27.67
  Q 9.14 28.59 8.26 29.25
  A 0.96 0.95 -64.1 0 0 8.85 30.97
  Z"
/>
<path fill="#7471b8" d="
  M 36.31 30.17
  Q 35.29 31.98 33.47 32.73
  Q 32.95 32.94 33.17 32.42
  Q 33.99 30.51 36.31 30.17
  Z"
/>
<circle fill="#3c255f" cx="50.39" cy="36.59" r="3.47"/>
<path fill="#080808" d="
  M 92.68 38.76
  L 93.42 39.29
  A 0.25 0.24 39.0 0 1 93.46 39.65
  Q 92.58 40.58 91.36 40.90
  A 1.94 1.94 0.0 0 1 89.11 39.89
  Q 87.08 35.82 91.01 33.81
  C 94.01 32.28 96.30 35.29 96.66 37.91
  Q 96.82 39.01 95.78 39.37
  Q 94.32 39.87 95.11 38.55
  Q 95.76 37.45 95.10 36.39
  Q 92.99 33.04 90.06 35.92
  Q 88.76 37.20 89.47 38.98
  A 1.25 1.24 66.0 0 0 91.18 39.64
  Q 91.80 39.33 92.29 38.80
  Q 92.46 38.60 92.68 38.76
  Z"
/>
<path fill="#291b35" fill-opacity="0.996" d="
  M 6.59 37.96
  Q 7.62 37.29 8.23 36.22
  A 1.57 1.57 0.0 0 1 10.54 35.76
  Q 13.67 38.15 10.58 40.82
  Q 10.01 41.32 9.54 41.04
  A 0.52 0.52 0.0 0 1 9.44 40.22
  L 10.71 38.96
  A 1.31 1.30 -42.1 0 0 10.80 37.20
  L 10.63 36.99
  A 0.73 0.72 49.0 0 0 9.58 36.91
  L 7.68 38.61
  A 2.04 2.04 0.0 0 1 4.28 37.08
  Q 4.28 35.57 5.49 34.33
  A 0.57 0.55 30.0 0 1 6.04 34.19
  L 6.57 34.35
  A 0.32 0.31 -59.0 0 1 6.70 34.88
  L 5.41 36.14
  A 0.90 0.87 64.6 0 0 5.16 36.87
  Q 5.23 37.47 5.71 37.89
  Q 6.12 38.26 6.59 37.96
  Z"
/>
<path fill="#7471b8" d="
  M 31.44 40.81
  Q 31.87 40.71 32.09 41.26
  C 30.13 45.84 28.01 50.04 30.85 54.84
  Q 32.42 57.49 34.84 59.78
  Q 37.54 62.33 39.30 66.68
  Q 39.57 67.35 40.81 67.94
  Q 40.94 68.61 40.82 68.93
  Q 39.82 68.85 39.84 69.50
  Q 39.97 72.93 38.99 76.50
  A 1.02 1.02 0.0 0 1 37.72 77.20
  Q 23.71 73.19 24.09 58.01
  Q 24.11 57.25 24.54 56.61
  A 0.31 0.30 50.8 0 1 25.07 56.67
  Q 26.69 60.62 29.30 64.26
  Q 29.55 64.61 29.91 64.38
  L 30.15 64.24
  A 0.29 0.27 -31.7 0 0 30.25 63.86
  Q 22.99 51.76 31.44 40.81
  Z"
/>
<path fill="#080808" d="
  M 90.93 46.64
  Q 91.06 47.44 91.82 47.93
  A 0.55 0.55 0.0 0 1 91.61 48.94
  Q 90.65 49.11 90.40 48.16
  Q 89.96 46.54 89.88 44.81
  A 0.82 0.82 0.0 0 1 90.80 43.96
  Q 94.09 44.37 96.85 43.05
  Q 97.59 42.69 97.78 43.49
  Q 98.36 45.81 98.28 48.09
  Q 98.25 48.68 97.66 48.71
  L 97.34 48.72
  A 0.48 0.47 1.0 0 1 96.84 48.21
  L 97.00 45.80
  A 0.75 0.71 31.2 0 0 96.88 45.37
  Q 96.29 44.51 95.57 44.68
  Q 94.90 44.84 94.81 45.52
  L 94.61 47.01
  A 0.32 0.31 42.1 0 1 93.99 47.04
  Q 93.65 45.61 92.39 45.29
  A 1.19 1.19 0.0 0 0 90.93 46.64
  Z"
/>
<path fill="#291b35" fill-opacity="0.996" d="
  M 4.72 46.15
  L 4.74 46.70
  Q 4.77 47.31 5.38 47.38
  Q 7.63 47.62 9.79 49.41
  Q 10.00 49.59 10.01 49.87
  Q 10.01 50.06 9.91 50.23
  Q 9.69 50.60 9.31 50.41
  L 2.82 47.19
  A 0.85 0.85 0.0 0 1 2.95 45.62
  L 9.97 43.46
  A 0.31 0.31 0.0 0 1 10.34 43.62
  L 10.51 43.97
  Q 10.75 44.47 10.24 44.69
  L 7.81 45.73
  Q 7.07 46.04 6.32 45.77
  L 5.60 45.50
  Q 4.67 45.17 4.72 46.15
  Z"
/>
<path fill="#3c255f" d="
  M 49.82 52.84
  A 1.30 1.30 0.0 0 0 48.58 54.74
  L 49.87 57.15
  Q 50.20 57.77 49.50 57.77
  L 46.23 57.79
  A 0.53 0.53 0.0 0 1 45.78 56.99
  C 46.26 56.19 46.52 55.40 46.63 54.47
  Q 47.29 49.12 45.96 45.09
  Q 45.75 44.44 46.42 44.51
  Q 48.98 44.78 51.48 44.83
  C 57.02 44.93 56.39 53.32 49.82 52.84
  Z
  M 48.43 47.29
  L 48.71 50.42
  A 1.08 1.08 0.0 0 0 49.89 51.39
  L 50.11 51.37
  A 3.61 2.49 -5.2 0 0 53.48 48.57
  L 53.46 48.25
  A 3.61 2.49 -5.2 0 0 49.63 46.10
  L 49.41 46.12
  A 1.08 1.08 0.0 0 0 48.43 47.29
  Z"
/>
<circle fill="#a3b7de" cx="79.85" cy="48.55" r="3.79"/>
<circle fill="#7471b8" cx="35.58" cy="49.44" r="3.32"/>
<circle fill="#7471b8" cx="20.56" cy="50.81" r="3.90"/>
<circle fill="#a3b7de" cx="64.26" cy="50.25" r="3.29"/>
<path fill="#080808" d="
  M 92.48 53.30
  L 91.14 53.32
  Q 89.97 53.35 90.40 52.26
  Q 90.63 51.68 91.29 51.85
  Q 94.77 52.78 97.93 52.36
  A 0.71 0.71 0.0 0 1 98.70 53.29
  Q 98.28 54.54 98.05 55.84
  C 97.71 57.78 95.68 58.15 94.35 56.85
  Q 93.50 56.02 92.48 56.61
  L 90.51 57.74
  Q 90.08 57.99 90.03 57.49
  L 89.98 56.92
  A 0.36 0.36 0.0 0 1 90.18 56.57
  L 92.94 55.18
  A 0.99 0.99 0.0 0 0 92.48 53.30
  Z
  M 97.03 54.93
  A 1.39 1.39 0.0 0 0 95.64 53.54
  A 1.39 1.39 0.0 0 0 94.25 54.93
  A 1.39 1.39 0.0 0 0 95.64 56.32
  A 1.39 1.39 0.0 0 0 97.03 54.93
  Z"
/>
<path fill="#080808" d="
  M 5.57 56.66
  Q 7.31 55.45 10.10 56.17
  A 0.46 0.45 7.5 0 1 10.44 56.61
  Q 10.43 56.92 10.24 57.10
  Q 10.00 57.33 9.67 57.29
  Q 6.51 56.98 3.35 58.03
  A 0.50 0.49 70.4 0 1 2.73 57.73
  C 1.96 55.69 2.13 52.99 4.80 52.70
  C 6.21 52.54 6.89 53.73 7.13 54.90
  Q 7.37 56.13 6.65 55.10
  Q 5.88 54.00 4.73 53.83
  A 1.41 1.41 0.0 0 0 3.26 55.84
  Q 3.66 56.66 4.57 56.86
  A 1.32 1.31 -56.0 0 0 5.57 56.66
  Z"
/>
<path fill="#8cafec" d="
  M 68.05 58.51
  Q 68.43 59.04 68.71 58.80
  Q 68.31 59.48 68.63 59.84
  Q 68.83 60.07 69.43 60.08
  Q 72.54 60.17 75.61 60.97
  Q 77.08 61.36 76.60 62.81
  Q 71.85 77.18 56.69 75.82
  Q 56.14 75.77 56.28 75.23
  Q 56.37 74.90 56.69 74.79
  Q 60.82 73.45 63.71 70.55
  Q 64.62 69.63 63.45 70.16
  Q 58.23 72.50 54.51 73.12
  C 49.09 74.01 45.33 71.83 40.82 68.93
  Q 40.94 68.61 40.81 67.94
  Q 44.37 69.89 45.80 70.18
  C 50.92 71.24 55.18 69.56 58.54 65.81
  C 60.69 63.42 63.08 62.12 66.00 60.76
  Q 67.29 60.16 68.05 58.51
  Z"
/>
<circle fill="#8cafec" cx="48.47" cy="64.31" r="3.45"/>
<circle fill="#8cafec" cx="50.31" cy="79.59" r="3.92"/>
</svg>
